<mxfile host="app.diagrams.net" modified="2024-06-16T13:05:13.718Z" agent="Mozilla/5.0 (Macintosh; Intel Mac OS X 10_15_7) AppleWebKit/537.36 (KHTML, like Gecko) Chrome/125.0.0.0 Safari/537.36" etag="bLqxej7VCzeZbQe39SxQ" version="24.5.4" type="device">
  <diagram name="Page-1" id="ucVbM3hOwR7mjPt10wgx">
    <mxGraphModel dx="1588" dy="960" grid="0" gridSize="10" guides="1" tooltips="1" connect="1" arrows="1" fold="1" page="1" pageScale="1" pageWidth="2336" pageHeight="1654" math="0" shadow="0">
      <root>
        <mxCell id="0" />
        <mxCell id="1" parent="0" />
        <mxCell id="atplgGEX1ZtIgq6edVkH-113" value="" style="rounded=0;whiteSpace=wrap;html=1;" vertex="1" parent="1">
          <mxGeometry x="316" y="40" width="504" height="720" as="geometry" />
        </mxCell>
        <mxCell id="atplgGEX1ZtIgq6edVkH-114" value="Menadžer" style="shape=umlActor;verticalLabelPosition=bottom;verticalAlign=top;html=1;outlineConnect=0;" vertex="1" parent="1">
          <mxGeometry x="100" y="130" width="60" height="110" as="geometry" />
        </mxCell>
        <mxCell id="atplgGEX1ZtIgq6edVkH-115" value="Praćenje rada" style="text;html=1;strokeColor=none;fillColor=none;align=center;verticalAlign=middle;whiteSpace=wrap;rounded=0;" vertex="1" parent="1">
          <mxGeometry x="386" y="40" width="194" height="40" as="geometry" />
        </mxCell>
        <mxCell id="atplgGEX1ZtIgq6edVkH-120" value="Unos/uređivanje podataka&lt;div&gt;o zaposleniku&lt;/div&gt;" style="ellipse;whiteSpace=wrap;html=1;" vertex="1" parent="1">
          <mxGeometry x="374.25" y="100" width="135.75" height="60" as="geometry" />
        </mxCell>
        <mxCell id="atplgGEX1ZtIgq6edVkH-138" value="Pregled podataka&lt;div&gt;&amp;nbsp;o zaposlenicima&lt;/div&gt;" style="ellipse;whiteSpace=wrap;html=1;" vertex="1" parent="1">
          <mxGeometry x="374.25" y="180" width="145.75" height="60" as="geometry" />
        </mxCell>
        <mxCell id="atplgGEX1ZtIgq6edVkH-145" value="Zaposlenik" style="shape=umlActor;verticalLabelPosition=bottom;verticalAlign=top;html=1;outlineConnect=0;" vertex="1" parent="1">
          <mxGeometry x="100" y="380" width="60" height="110" as="geometry" />
        </mxCell>
        <mxCell id="atplgGEX1ZtIgq6edVkH-152" value="" style="endArrow=none;html=1;rounded=0;entryX=0;entryY=0.5;entryDx=0;entryDy=0;" edge="1" parent="1" target="atplgGEX1ZtIgq6edVkH-120">
          <mxGeometry width="50" height="50" relative="1" as="geometry">
            <mxPoint x="170" y="140" as="sourcePoint" />
            <mxPoint x="210" y="90" as="targetPoint" />
          </mxGeometry>
        </mxCell>
        <mxCell id="atplgGEX1ZtIgq6edVkH-153" value="" style="endArrow=none;html=1;rounded=0;entryX=0;entryY=0.5;entryDx=0;entryDy=0;" edge="1" parent="1" target="atplgGEX1ZtIgq6edVkH-138">
          <mxGeometry width="50" height="50" relative="1" as="geometry">
            <mxPoint x="170" y="160" as="sourcePoint" />
            <mxPoint x="366" y="140" as="targetPoint" />
          </mxGeometry>
        </mxCell>
        <mxCell id="j_2885t-o51xl3E7jDCP-5" value="HR odjel" style="shape=umlActor;verticalLabelPosition=bottom;verticalAlign=top;html=1;outlineConnect=0;" vertex="1" parent="1">
          <mxGeometry x="100" y="550" width="60" height="110" as="geometry" />
        </mxCell>
        <mxCell id="j_2885t-o51xl3E7jDCP-9" value="&amp;lt;&amp;lt;extend&amp;gt;&amp;gt;" style="html=1;verticalAlign=bottom;labelBackgroundColor=none;endArrow=open;endFill=0;dashed=1;rounded=0;fontSize=12;startSize=8;endSize=8;curved=1;entryX=1;entryY=0.5;entryDx=0;entryDy=0;exitX=0;exitY=0.5;exitDx=0;exitDy=0;" edge="1" parent="1" source="j_2885t-o51xl3E7jDCP-10" target="atplgGEX1ZtIgq6edVkH-120">
          <mxGeometry width="160" relative="1" as="geometry">
            <mxPoint x="590" y="170" as="sourcePoint" />
            <mxPoint x="750" y="170" as="targetPoint" />
          </mxGeometry>
        </mxCell>
        <mxCell id="j_2885t-o51xl3E7jDCP-10" value="Odabir tima" style="ellipse;whiteSpace=wrap;html=1;" vertex="1" parent="1">
          <mxGeometry x="600" y="120" width="110" height="60" as="geometry" />
        </mxCell>
        <mxCell id="j_2885t-o51xl3E7jDCP-11" value="Unos/uređivanje podataka&lt;div&gt;o projektu&lt;/div&gt;" style="ellipse;whiteSpace=wrap;html=1;" vertex="1" parent="1">
          <mxGeometry x="374.25" y="250" width="135.75" height="60" as="geometry" />
        </mxCell>
        <mxCell id="j_2885t-o51xl3E7jDCP-12" value="Unos/uređivanje podataka&lt;div&gt;o projektu&lt;/div&gt;" style="ellipse;whiteSpace=wrap;html=1;" vertex="1" parent="1">
          <mxGeometry x="376.75" y="330" width="130.75" height="60" as="geometry" />
        </mxCell>
        <mxCell id="j_2885t-o51xl3E7jDCP-13" value="" style="endArrow=none;html=1;rounded=0;entryX=0;entryY=0.5;entryDx=0;entryDy=0;" edge="1" parent="1" target="j_2885t-o51xl3E7jDCP-11">
          <mxGeometry width="50" height="50" relative="1" as="geometry">
            <mxPoint x="170.25" y="200" as="sourcePoint" />
            <mxPoint x="374.25" y="250" as="targetPoint" />
          </mxGeometry>
        </mxCell>
        <mxCell id="j_2885t-o51xl3E7jDCP-14" value="" style="endArrow=none;html=1;rounded=0;entryX=0;entryY=0.5;entryDx=0;entryDy=0;" edge="1" parent="1" target="j_2885t-o51xl3E7jDCP-12">
          <mxGeometry width="50" height="50" relative="1" as="geometry">
            <mxPoint x="170.5" y="240" as="sourcePoint" />
            <mxPoint x="374.25" y="320" as="targetPoint" />
          </mxGeometry>
        </mxCell>
        <mxCell id="j_2885t-o51xl3E7jDCP-15" value="Unos početka rada" style="ellipse;whiteSpace=wrap;html=1;" vertex="1" parent="1">
          <mxGeometry x="379.25" y="410" width="135.75" height="60" as="geometry" />
        </mxCell>
        <mxCell id="j_2885t-o51xl3E7jDCP-16" value="Pregled povijesti&lt;div&gt;aktivnosti&lt;/div&gt;" style="ellipse;whiteSpace=wrap;html=1;" vertex="1" parent="1">
          <mxGeometry x="379.25" y="490" width="135.75" height="60" as="geometry" />
        </mxCell>
        <mxCell id="j_2885t-o51xl3E7jDCP-17" value="Unos kraja rada" style="ellipse;whiteSpace=wrap;html=1;" vertex="1" parent="1">
          <mxGeometry x="587.12" y="400" width="135.75" height="60" as="geometry" />
        </mxCell>
        <mxCell id="j_2885t-o51xl3E7jDCP-18" value="&amp;lt;&amp;lt;extend&amp;gt;&amp;gt;" style="html=1;verticalAlign=bottom;labelBackgroundColor=none;endArrow=open;endFill=0;dashed=1;rounded=0;fontSize=12;startSize=8;endSize=8;curved=1;entryX=1;entryY=0.5;entryDx=0;entryDy=0;exitX=0;exitY=0.5;exitDx=0;exitDy=0;" edge="1" parent="1" source="j_2885t-o51xl3E7jDCP-17" target="j_2885t-o51xl3E7jDCP-15">
          <mxGeometry width="160" relative="1" as="geometry">
            <mxPoint x="590" y="530" as="sourcePoint" />
            <mxPoint x="750" y="530" as="targetPoint" />
          </mxGeometry>
        </mxCell>
        <mxCell id="j_2885t-o51xl3E7jDCP-19" value="" style="endArrow=none;html=1;rounded=0;entryX=0;entryY=0.5;entryDx=0;entryDy=0;" edge="1" parent="1">
          <mxGeometry width="50" height="50" relative="1" as="geometry">
            <mxPoint x="175.25" y="450" as="sourcePoint" />
            <mxPoint x="379.25" y="440" as="targetPoint" />
          </mxGeometry>
        </mxCell>
        <mxCell id="j_2885t-o51xl3E7jDCP-20" value="" style="endArrow=none;html=1;rounded=0;entryX=0;entryY=0.5;entryDx=0;entryDy=0;" edge="1" parent="1" target="j_2885t-o51xl3E7jDCP-16">
          <mxGeometry width="50" height="50" relative="1" as="geometry">
            <mxPoint x="175.25" y="480" as="sourcePoint" />
            <mxPoint x="379.25" y="470" as="targetPoint" />
          </mxGeometry>
        </mxCell>
        <mxCell id="j_2885t-o51xl3E7jDCP-21" value="Odabir vrste izvještaja" style="ellipse;whiteSpace=wrap;html=1;" vertex="1" parent="1">
          <mxGeometry x="379.25" y="560" width="135.75" height="60" as="geometry" />
        </mxCell>
        <mxCell id="j_2885t-o51xl3E7jDCP-22" value="Pregled izvještaja" style="ellipse;whiteSpace=wrap;html=1;" vertex="1" parent="1">
          <mxGeometry x="384.25" y="650" width="135.75" height="60" as="geometry" />
        </mxCell>
        <mxCell id="j_2885t-o51xl3E7jDCP-23" value="Generiranja izvještaja" style="ellipse;whiteSpace=wrap;html=1;" vertex="1" parent="1">
          <mxGeometry x="610" y="575" width="135.75" height="60" as="geometry" />
        </mxCell>
        <mxCell id="j_2885t-o51xl3E7jDCP-24" value="" style="endArrow=none;html=1;rounded=0;entryX=0;entryY=0.5;entryDx=0;entryDy=0;" edge="1" parent="1">
          <mxGeometry width="50" height="50" relative="1" as="geometry">
            <mxPoint x="175.25" y="600" as="sourcePoint" />
            <mxPoint x="379.25" y="590" as="targetPoint" />
          </mxGeometry>
        </mxCell>
        <mxCell id="j_2885t-o51xl3E7jDCP-25" value="" style="endArrow=none;html=1;rounded=0;entryX=0;entryY=0.5;entryDx=0;entryDy=0;" edge="1" parent="1">
          <mxGeometry width="50" height="50" relative="1" as="geometry">
            <mxPoint x="182.25" y="635" as="sourcePoint" />
            <mxPoint x="386" y="675" as="targetPoint" />
          </mxGeometry>
        </mxCell>
        <mxCell id="j_2885t-o51xl3E7jDCP-26" value="&amp;lt;&amp;lt;extend&amp;gt;&amp;gt;" style="html=1;verticalAlign=bottom;labelBackgroundColor=none;endArrow=open;endFill=0;dashed=1;rounded=0;fontSize=12;startSize=8;endSize=8;curved=1;entryX=1;entryY=0.5;entryDx=0;entryDy=0;exitX=0;exitY=0.5;exitDx=0;exitDy=0;" edge="1" parent="1" source="j_2885t-o51xl3E7jDCP-23" target="j_2885t-o51xl3E7jDCP-21">
          <mxGeometry width="160" relative="1" as="geometry">
            <mxPoint x="610" y="700" as="sourcePoint" />
            <mxPoint x="770" y="700" as="targetPoint" />
          </mxGeometry>
        </mxCell>
      </root>
    </mxGraphModel>
  </diagram>
</mxfile>
